<?xml version="1.0" encoding="UTF-8" standalone="no"?>
<svg width="240px" height="240px" viewBox="0 0 240 240" version="1.1" xmlns="http://www.w3.org/2000/svg" xmlns:xlink="http://www.w3.org/1999/xlink">
    <!-- Generator: Sketch 41.2 (35397) - http://www.bohemiancoding.com/sketch -->
    <title>Original</title>
    <desc>Created with Sketch.</desc>
    <defs></defs>
    <g id="Page-1" stroke="none" stroke-width="1" fill="none" fill-rule="evenodd">
        <g id="Original">
            <path d="M120.5,176 C158.88379,176 190,144.88379 190,106.5 C190,68.1162099 158.88379,37 120.5,37" id="Oval-3" stroke="#3093B8" stroke-width="2" stroke-linecap="round" stroke-dasharray="1,4"></path>
            <circle id="Oval-2" fill="#2488B1" cx="120" cy="37" r="12"></circle>
            <path d="M20.9078947,209.710526 C73.9381311,209.710526 116.927632,166.721026 116.927632,113.690789 C116.927632,60.6605531 73.9381311,17.6710526 20.9078947,17.6710526" id="Oval-3" stroke="#0D6292" stroke-width="2" stroke-linecap="round" stroke-dasharray="1,4" transform="translate(68.917763, 113.690789) rotate(-180.000000) translate(-68.917763, -113.690789) "></path>
            <ellipse id="Oval-2" fill="#0D6292" transform="translate(120.000000, 211.000000) rotate(-180.000000) translate(-120.000000, -211.000000) " cx="120" cy="211" rx="12" ry="12"></ellipse>
            <path d="M80.2911184,234.873355 C127.004598,234.873355 164.873355,197.004598 164.873355,150.291118 C164.873355,103.577639 127.004598,65.7088816 80.2911184,65.7088816" id="Oval-3" stroke="#6BD3E4" stroke-width="2" stroke-linecap="round" stroke-dasharray="1,4" transform="translate(122.582237, 150.291118) rotate(-270.000000) translate(-122.582237, -150.291118) "></path>
            <circle id="Oval-2" fill="#5BCDE2" transform="translate(208.000000, 101.000000) rotate(-270.000000) translate(-208.000000, -101.000000) " cx="208" cy="101" r="12"></circle>
            <path d="M117.48443,149.618068 C114.161668,149.472442 111.24513,148.969344 108.764429,148.113876 C104.703902,146.713609 102.562873,144.843703 101.369191,141.655107 C101.08817,140.904459 100.978815,138.57459 101.169201,137.394395 C101.349899,136.27428 102.006203,134.619686 102.599744,133.787918 C103.519177,132.499455 104.790962,131.499602 106.126898,131.014949 C107.940346,130.357063 106.821969,130.40523 120.283442,130.40523 C132.556035,130.40523 132.556035,130.40523 133.901714,130.761816 C137.912322,131.824569 140.222713,134.27816 140.689675,137.970519 C140.9311,139.879556 140.564742,141.996857 139.738183,143.469497 C138.884118,144.991142 137.567323,146.17257 135.669571,147.119861 C133.775414,148.065355 132.0315,148.566094 128.68048,149.126675 C125.983362,149.577867 121.27862,149.784357 117.48443,149.618068 L117.48443,149.618068 Z M158.182781,142.301033 C158.226446,142.153009 158.417177,141.692786 158.606627,141.278317 C159.147278,140.095504 159.200944,139.956754 159.647688,138.586959 C159.879414,137.876441 160.188726,136.665329 160.33505,135.895601 C160.481384,135.125873 160.647796,134.268756 160.704885,133.990896 C161.042834,132.345738 161.113358,127.302772 160.824285,125.453131 C159.858066,119.270992 158.15998,115.904208 154.439824,112.794706 C151.982624,110.740846 147.817575,109.03997 143.805912,108.45214 C140.230874,107.928287 140.126772,107.925223 123.674553,107.859575 C108.147215,107.797616 108.117265,107.797077 107.447989,107.567453 C105.612332,106.937647 104.262067,105.387145 103.970023,103.573698 C103.72119,102.028556 104.586074,99.9983276 106.15463,98.4456034 C106.830882,97.7761679 107.286099,97.4854743 107.559099,97.5487137 C111.81376,98.5342804 112.549588,98.6489226 115.715432,98.8194696 C119.318816,99.0135887 125.426531,98.7963067 127.711591,98.3927064 C131.940511,97.6457694 133.485221,97.2500504 136.593073,96.1174774 C137.591243,95.7537199 140.395886,94.3955788 141.311508,93.83258 C142.006793,93.4050653 143.755961,92.17751 144.128499,91.8556268 C144.276728,91.7275515 144.664456,91.3921663 144.99011,91.1103262 C145.838308,90.3762442 147.065276,89.045527 147.979369,87.8683043 C148.765289,86.8561373 149.939302,84.7672537 150.572536,83.2543476 C150.968725,82.3077851 151.799698,79.2763566 151.989482,78.0852283 C152.458693,75.1405014 152.265798,70.9226383 151.499622,67.373624 C150.862094,64.4205108 149.889372,62.1710274 148.078056,59.4610304 C147.721881,58.9281415 147.322484,58.3710304 147.1905,58.2230057 C147.058516,58.074981 146.697529,57.6632032 146.388303,57.3079439 C145.232407,55.9799953 144.090863,54.957718 142.293724,53.6411623 C141.336268,52.9397437 141.314242,52.9140004 141.826192,53.0946271 C143.006213,53.5109608 148.103742,56.2548311 149.405208,57.1742112 C149.552532,57.2782879 150.157518,57.6858544 150.749616,58.0799147 C151.341715,58.473975 151.98031,58.9217103 152.168716,59.074882 C152.357121,59.2280538 152.738476,59.5229317 153.01617,59.7301658 C153.293865,59.9374004 153.725795,60.2765115 153.976006,60.4837461 C154.226227,60.6909807 154.837983,61.1933345 155.335464,61.6000881 C157.168344,63.0986815 160.58301,66.5516186 161.930907,68.2694598 C162.294283,68.732565 162.736925,69.2945755 162.914555,69.5183738 C164.12727,71.0462793 166.068676,73.8380778 166.588614,74.8017724 C166.732376,75.0682169 167.094902,75.6979947 167.394224,76.2012787 C168.551153,78.1464707 170.363072,81.9669321 170.968207,83.7370804 C171.059294,84.0035248 171.216501,84.4153026 171.317556,84.6521421 C171.588372,85.2868322 172.632619,88.7082815 172.878254,89.7657226 C172.995166,90.2690065 173.161169,90.9393108 173.247163,91.2552892 C173.497804,92.1762687 174.247498,96.9006702 174.394522,98.4857229 C174.662355,101.373191 174.532351,108.075328 174.16483,110.327699 C173.613651,113.705552 173.34065,115.093057 172.883292,116.840785 C172.30746,119.041267 171.505101,121.725519 171.370867,121.900539 C171.325448,121.959749 171.162943,122.376457 171.00973,122.826559 C170.856527,123.276659 170.611172,123.907276 170.464504,124.227927 C170.317835,124.548579 170.101752,125.052315 169.984322,125.347339 C169.866893,125.642365 169.620935,126.183809 169.43775,126.55055 C169.254566,126.917291 169.104679,127.245531 169.104679,127.279973 C169.104679,127.376222 167.717693,129.939954 166.947975,131.266465 C166.115172,132.701697 164.789764,134.686085 163.712144,136.111098 C163.273475,136.69119 162.817666,137.295763 162.699246,137.454593 C162.444988,137.795612 161.60634,138.800006 161.29974,139.130683 C161.18132,139.258403 160.769543,139.716842 160.384678,140.149436 C159.000965,141.704753 158.098574,142.586534 158.182781,142.301033 L158.182781,142.301033 Z M80.0081869,141.089922 C76.5165028,137.487977 73.1295933,132.662673 70.8461506,128.036835 C70.4661912,127.267107 70.1061262,126.546597 70.0460056,126.435703 C69.5842169,125.58392 68.2417331,122.184562 67.6810101,120.447205 C67.3062105,119.285914 66.6202673,116.836654 66.2797664,115.443853 C66.118034,114.782296 65.5415656,111.475125 65.3785931,110.273872 C64.8744543,106.5579 64.8737008,100.221302 65.376946,96.4402907 C66.0264288,91.5605732 67.6956317,85.3660927 69.2577197,82.0385815 C69.4044084,81.7261116 69.5244257,81.438513 69.5244257,81.3994743 C69.5244257,81.1956589 71.2770446,77.6591809 71.9405096,76.5242406 C73.5541238,73.7639481 73.5263059,73.8069377 75.7683763,70.6088485 C76.6596238,69.3375726 78.8781459,66.7477831 80.557183,65.0186383 C84.1035598,61.3664276 88.5670254,57.9246172 92.885414,55.5122505 C94.1558556,54.8025461 96.657398,53.5620686 96.7106868,53.6153532 C96.7348983,53.6395679 96.3564503,53.9706437 95.8696913,54.3510779 C94.7703038,55.2103216 92.6845256,57.273541 91.9010153,58.2768329 C89.4582289,61.4048387 87.8185501,65.2358352 87.2917932,69.0459554 C87.0538126,70.7673146 86.9687753,73.0626491 87.0779368,74.8183695 C87.1898252,76.6179267 87.5196145,78.9297775 87.7743171,79.7000432 C87.8526324,79.9368827 88.0464307,80.5666605 88.2049796,81.0995494 C88.6634945,82.640634 89.9132772,85.3741248 90.5429668,86.2131298 C90.6540628,86.3611545 90.9364218,86.7729323 91.1704332,87.1281916 C91.8958942,88.2295363 92.1062669,88.490204 93.2938771,89.7592978 C94.9159385,91.492653 97.1252959,93.223797 99.0952409,94.304965 C99.5284742,94.5427401 99.8829476,94.7807401 99.8829476,94.8338557 C99.8829476,94.8869712 99.7012809,95.0523896 99.4792439,95.2014521 C99.2572068,95.3505146 98.8727517,95.6296784 98.6248992,95.8218156 C98.3770466,96.0139516 97.8343289,96.417271 97.4188585,96.7180809 C96.2271036,97.5809508 93.7530583,99.7866522 92.5001375,101.103313 C91.0325356,102.645575 90.1721611,103.747126 88.8689366,105.75239 C87.7535926,107.468565 86.8567718,110.482864 86.8567718,112.515466 C86.8567718,114.343778 87.2988284,116.32112 88.0817994,117.995079 C89.9060472,121.895242 93.4681501,124.573467 98.4182675,125.766722 C98.5903637,125.808206 98.6867681,125.881475 98.6335761,125.930358 C98.5806102,125.979043 97.931713,126.149754 97.1915895,126.309715 C95.8994684,126.588977 95.4801764,126.706291 93.208377,127.424159 C90.8260621,128.176952 88.3735093,129.325403 86.5568737,130.538842 C85.3012561,131.377546 83.4841728,133.183651 82.7380293,134.334613 C81.5127271,136.224703 80.9740292,137.975753 80.8585204,140.443996 C80.824577,141.169317 80.7661207,141.762762 80.7286161,141.762762 C80.6911125,141.762762 80.3669191,141.459984 80.0081847,141.089922 L80.0081869,141.089922 Z M117.645911,89.6996487 C116.082448,89.5092652 114.392049,88.840453 113.548771,88.0786038 C111.872571,86.564253 110.625794,83.5173579 110.161901,79.8016818 C109.683797,75.9722118 109.715071,69.4665543 110.228894,65.8664634 C110.573485,63.4521451 111.584607,60.3337535 112.393091,59.1918946 C112.928133,58.4362316 113.668439,57.6375008 114.225766,57.2145874 C115.582748,56.18486 118.015553,55.6339072 120.498751,55.7939512 C121.937756,55.8866961 122.575715,56.0212673 123.728381,56.4752152 C126.377366,57.5184451 127.985937,59.8561784 128.898673,63.9891766 C129.095627,64.8809904 129.307889,65.9952137 129.370382,66.4652271 C129.811604,69.7841658 129.812648,76.3652427 129.372535,79.6780817 C129.189265,81.0573704 128.584549,83.5670791 128.251843,84.3291791 C128.174289,84.5068088 127.999211,84.9185866 127.862759,85.2442409 C127.208328,86.8061491 125.885052,88.2317992 124.462336,88.9077316 C123.144905,89.5336446 122.441352,89.6615616 120.068198,89.7066602 C118.94321,89.7280393 117.85321,89.7248839 117.645976,89.6996519 L117.645911,89.6996487 Z" id="path3360" fill="#27508C"></path>
        </g>
    </g>
</svg>